#!OML:ASF G:\JayActor3\Patient Classification 1\Patient 1\Session 6\male.ASF
:FULLY-SPECIFIED
:DEGREES
1329
root -1.51565 16.2885 -21.9146 175.018 -35.6335 -174.206
lowerback -0.43605 0.292751 2.24485
upperback 2.72243 0.268315 0.764615
thorax 3.04828 0.155645 -0.464933
lowerneck -6.62374 -1.85135 -0.176668
upperneck 9.65978 -2.8789 2.73917
head 4.43022 -1.33712 0.781528
rclavicle -2.1916e-014 3.18055e-015
rhumerus -41.1327 44.3448 -95.9598
rradius 112.033
rwrist -33.4452
rhand -29.323 -13.5627
rfingers 7.12502
rthumb -2.66364 -43.5258
lclavicle -2.1916e-014 3.18055e-015
lhumerus -32.1705 10.3482 82.0026
lradius 23.2331
lwrist 14.8578
lhand -17.1201 11.1231
lfingers 7.12502
lthumb 9.11943 40.9059
rfemur -13.7031 7.72801 18.4679
rtibia 35.6217
rfoot -19.9658 -11.4654
rtoes -0.704836
lfemur -1.6064 10.6374 -18.2031
ltibia 25.8087
lfoot -23.213 15.6969
ltoes -2.5874
1330
root -1.51499 16.2881 -21.9136 175.003 -35.6454 -174.21
lowerback -0.423634 0.290883 2.24481
upperback 2.72804 0.265803 0.764814
thorax 3.04701 0.154292 -0.464822
lowerneck -6.624 -1.85889 -0.190027
upperneck 9.65951 -2.88922 2.75325
head 4.43094 -1.34205 0.788056
rclavicle -7.53394e-014 5.1684e-015
rhumerus -41.1072 44.3084 -95.9218
rradius 112.042
rwrist -33.4615
rhand -29.3382 -13.5434
rfingers 7.12502
rthumb -2.67831 -43.5063
lclavicle -7.53394e-014 5.1684e-015
lhumerus -32.1896 10.363 82.0024
lradius 23.2317
lwrist 14.8542
lhand -17.1076 11.1459
lfingers 7.12502
lthumb 9.13154 40.9282
rfemur -13.6873 7.72574 18.4649
rtibia 35.6241
rfoot -19.9736 -11.4694
rtoes -0.708365
lfemur -1.5931 10.6348 -18.2044
ltibia 25.8083
lfoot -23.2135 15.6872
ltoes -2.58682
1331
root -1.5141 16.2877 -21.9129 174.989 -35.6482 -174.215
lowerback -0.411227 0.291711 2.24025
upperback 2.73379 0.266954 0.765764
thorax 3.04595 0.154643 -0.461297
lowerneck -6.62259 -1.86646 -0.202198
upperneck 9.6599 -2.89945 2.76465
head 4.43148 -1.34704 0.793484
rclavicle -1.93815e-014 -1.31198e-014
rhumerus -41.0799 44.2768 -95.8831
rradius 112.05
rwrist -33.4844
rhand -29.3552 -13.5299
rfingers 7.12502
rthumb -2.69476 -43.4926
lclavicle -1.93815e-014 -1.31198e-014
lhumerus -32.2079 10.3845 81.9992
lradius 23.2378
lwrist 14.85
lhand -17.0859 11.1786
lfingers 7.12502
lthumb 9.15242 40.96
rfemur -13.6733 7.73339 18.4636
rtibia 35.6279
rfoot -19.9812 -11.4759
rtoes -0.708496
lfemur -1.5782 10.6348 -18.2053
ltibia 25.8082
lfoot -23.217 15.6814
ltoes -2.57698
1332
root -1.51316 16.2873 -21.9122 174.976 -35.6467 -174.22
lowerback -0.403546 0.293882 2.23637
upperback 2.74197 0.269674 0.765889
thorax 3.05011 0.15585 -0.458923
lowerneck -6.62337 -1.87373 -0.211546
upperneck 9.65981 -2.90931 2.77406
head 4.43219 -1.35179 0.797744
rclavicle 2.78547e-014 1.74931e-014
rhumerus -41.0447 44.2483 -95.8414
rradius 112.054
rwrist -33.5101
rhand -29.3746 -13.5252
rfingers 7.12502
rthumb -2.71352 -43.4877
lclavicle 2.78547e-014 1.74931e-014
lhumerus -32.2197 10.403 81.9966
lradius 23.2481
lwrist 14.8478
lhand -17.0727 11.199
lfingers 7.12502
lthumb 9.16521 40.9799
rfemur -13.6615 7.7456 18.4634
rtibia 35.6333
rfoot -19.9875 -11.4841
rtoes -0.704455
lfemur -1.56333 10.6359 -18.2056
ltibia 25.8078
lfoot -23.2182 15.6807
ltoes -2.57625
1333
root -1.51229 16.2869 -21.9115 174.963 -35.6479 -174.223
lowerback -0.400965 0.295669 2.23637
upperback 2.75203 0.271611 0.764983
thorax 3.05911 0.156822 -0.459771
lowerneck -6.62823 -1.88115 -0.218407
upperneck 9.661 -2.91943 2.78147
head 4.4341 -1.35662 0.800832
rclavicle -5.94118e-014 1.19271e-015
rhumerus -41.0024 44.2215 -95.7957
rradius 112.056
rwrist -33.5365
rhand -29.3963 -13.5249
rfingers 7.12502
rthumb -2.73449 -43.4871
lclavicle -5.94118e-014 1.19271e-015
lhumerus -32.2241 10.4155 81.9967
lradius 23.2603
lwrist 14.8479
lhand -17.0672 11.2104
lfingers 7.12502
lthumb 9.17047 40.991
rfemur -13.6528 7.75586 18.4639
rtibia 35.6397
rfoot -19.9942 -11.4923
rtoes -0.688226
lfemur -1.55181 10.6315 -18.2061
ltibia 25.8074
lfoot -23.219 15.6816
ltoes -2.57055
1334
root -1.5115 16.2867 -21.9107 174.954 -35.6502 -174.228
lowerback -0.403518 0.297071 2.23629
upperback 2.76316 0.272924 0.762595
thorax 3.07209 0.157554 -0.46209
lowerneck -6.63582 -1.88768 -0.222727
upperneck 9.66201 -2.92838 2.78698
head 4.43639 -1.36081 0.802876
rclavicle 3.9086e-014 0
rhumerus -40.9546 44.1975 -95.7478
rradius 112.058
rwrist -33.5654
rhand -29.4147 -13.5214
rfingers 7.12502
rthumb -2.75222 -43.4834
lclavicle 3.9086e-014 0
lhumerus -32.2216 10.4202 81.9997
lradius 23.2747
lwrist 14.8518
lhand -17.0637 11.2106
lfingers 7.12502
lthumb 9.17385 40.991
rfemur -13.6472 7.7641 18.4614
rtibia 35.6471
rfoot -20.0008 -11.4969
rtoes -0.669489
lfemur -1.54255 10.6229 -18.2102
ltibia 25.8058
lfoot -23.2203 15.684
ltoes -2.55925
1335
root -1.51063 16.2866 -21.9099 174.95 -35.6528 -174.236
lowerback -0.409799 0.297914 2.23327
upperback 2.77367 0.273528 0.759773
thorax 3.08651 0.1579 -0.463208
lowerneck -6.64558 -1.89262 -0.227214
upperneck 9.66513 -2.93529 2.79267
head 4.43985 -1.36397 0.805113
rclavicle -1.30105e-013 1.31198e-014
rhumerus -40.9045 44.1765 -95.6996
rradius 112.059
rwrist -33.5954
rhand -29.4269 -13.5085
rfingers 7.12502
rthumb -2.76404 -43.4703
lclavicle -1.30105e-013 1.31198e-014
lhumerus -32.2156 10.4177 82.007
lradius 23.2948
lwrist 14.866
lhand -17.0696 11.2044
lfingers 7.12502
lthumb 9.16821 40.9851
rfemur -13.6468 7.77151 18.4561
rtibia 35.6551
rfoot -20.0065 -11.4998
rtoes -0.638019
lfemur -1.53777 10.6184 -18.2165
ltibia 25.803
lfoot -23.2189 15.6845
ltoes -2.55424
1336
root -1.50976 16.2866 -21.909 174.952 -35.6571 -174.248
lowerback -0.41636 0.297588 2.22499
upperback 2.78141 0.272856 0.756722
thorax 3.09816 0.157489 -0.46167
lowerneck -6.65395 -1.89647 -0.231743
upperneck 9.6699 -2.94067 2.79697
head 4.44358 -1.36646 0.806993
rclavicle 1.29185e-013 -1.43125e-014
rhumerus -40.8603 44.1585 -95.6554
rradius 112.061
rwrist -33.6253
rhand -29.4346 -13.4872
rfingers 7.12502
rthumb -2.77148 -43.449
lclavicle 1.29185e-013 -1.43125e-014
lhumerus -32.2098 10.4009 82.0203
lradius 23.3202
lwrist 14.8946
lhand -17.0742 11.1938
lfingers 7.12502
lthumb 9.16377 40.9747
rfemur -13.6496 7.77483 18.4457
rtibia 35.6642
rfoot -20.0138 -11.4985
rtoes -0.603063
lfemur -1.53459 10.6149 -18.2273
ltibia 25.7978
lfoot -23.2161 15.6836
ltoes -2.55376
1337
root -1.50882 16.2866 -21.9082 174.954 -35.6616 -174.261
lowerback -0.420771 0.297045 2.2151
upperback 2.78678 0.272087 0.754323
thorax 3.10611 0.156957 -0.458584
lowerneck -6.66029 -1.90011 -0.239045
upperneck 9.67554 -2.94575 2.80304
head 4.4473 -1.36887 0.809999
rclavicle 5.49888e-014 2.38542e-015
rhumerus -40.8228 44.141 -95.6147
rradius 112.066
rwrist -33.6553
rhand -29.4383 -13.465
rfingers 7.12502
rthumb -2.77501 -43.4267
lclavicle 5.49888e-014 2.38542e-015
lhumerus -32.205 10.3796 82.0368
lradius 23.3528
lwrist 14.9286
lhand -17.0781 11.1806
lfingers 7.12502
lthumb 9.15995 40.9617
rfemur -13.6537 7.77721 18.4349
rtibia 35.6734
rfoot -20.0207 -11.4967
rtoes -0.571628
lfemur -1.53178 10.6153 -18.2378
ltibia 25.7916
lfoot -23.2115 15.6795
ltoes -2.56092
1338
root -1.50799 16.2865 -21.9073 174.958 -35.6697 -174.278
lowerback -0.421916 0.295353 2.20301
upperback 2.79093 0.270016 0.751078
thorax 3.11092 0.155712 -0.455197
lowerneck -6.66407 -1.9044 -0.247519
upperneck 9.67951 -2.95146 2.8089
head 4.44993 -1.37166 0.813125
rclavicle 6.0853e-014 -7.55382e-015
rhumerus -40.7902 44.1245 -95.5778
rradius 112.071
rwrist -33.6822
rhand -29.4395 -13.4391
rfingers 7.12502
rthumb -2.77616 -43.4008
lclavicle 6.0853e-014 -7.55382e-015
lhumerus -32.1997 10.345 82.0593
lradius 23.3903
lwrist 14.9729
lhand -17.084 11.1609
lfingers 7.12502
lthumb 9.15432 40.9423
rfemur -13.6555 7.77048 18.4192
rtibia 35.6826
rfoot -20.0242 -11.4934
rtoes -0.565172
lfemur -1.52665 10.6178 -18.2517
ltibia 25.7844
lfoot -23.2038 15.6721
ltoes -2.57485
1339
root -1.50717 16.2863 -21.9064 174.956 -35.6772 -174.291
lowerback -0.418856 0.294037 2.19482
upperback 2.79413 0.268449 0.748899
thorax 3.11241 0.154755 -0.452902
lowerneck -6.66529 -1.90823 -0.25541
upperneck 9.6833 -2.95648 2.81345
head 4.45191 -1.3742 0.815765
rclavicle -6.72389e-014 -3.57812e-015
rhumerus -40.7618 44.109 -95.5449
rradius 112.076
rwrist -33.706
rhand -29.4403 -13.4157
rfingers 7.12502
rthumb -2.77695 -43.3774
lclavicle -6.72389e-014 -3.57812e-015
lhumerus -32.1962 10.3032 82.0851
lradius 23.4359
lwrist 15.0212
lhand -17.0876 11.1474
lfingers 7.12502
lthumb 9.15078 40.9289
rfemur -13.6539 7.7625 18.4081
rtibia 35.6907
rfoot -20.0217 -11.4967
rtoes -0.56602
lfemur -1.51882 10.6206 -18.2609
ltibia 25.7782
lfoot -23.1971 15.6629
ltoes -2.58596
1340
root -1.50649 16.2859 -21.9056 174.951 -35.6858 -174.3
lowerback -0.4141 0.292382 2.19054
upperback 2.79802 0.266322 0.747049
thorax 3.11367 0.153592 -0.452484
lowerneck -6.66673 -1.91165 -0.261838
upperneck 9.68587 -2.96084 2.8164
head 4.45342 -1.37642 0.817642
rclavicle 6.12257e-014 9.14409e-015
rhumerus -40.7356 44.0945 -95.5148
rradius 112.082
rwrist -33.7243
rhand -29.4386 -13.3947
rfingers 7.12502
rthumb -2.77534 -43.3564
lclavicle 6.12257e-014 9.14409e-015
lhumerus -32.1904 10.2534 82.1151
lradius 23.4852
lwrist 15.07
lhand -17.1012 11.131
lfingers 7.12502
lthumb 9.13769 40.9131
rfemur -13.6484 7.74937 18.3991
rtibia 35.6974
rfoot -20.0159 -11.4997
rtoes -0.583509
lfemur -1.5085 10.626 -18.2667
ltibia 25.7733
lfoot -23.189 15.652
ltoes -2.60744
1341
root -1.50577 16.2856 -21.9047 174.942 -35.6918 -174.305
lowerback -0.407739 0.291527 2.19019
upperback 2.80172 0.26515 0.746575
thorax 3.11388 0.152959 -0.452831
lowerneck -6.66971 -1.91548 -0.26772
upperneck 9.68841 -2.96566 2.81821
head 4.4552 -1.37887 0.818992
rclavicle -4.78823e-014 -4.77083e-015
rhumerus -40.7111 44.0819 -95.4871
rradius 112.088
rwrist -33.7372
rhand -29.4402 -13.3752
rfingers 7.12502
rthumb -2.77684 -43.3369
lclavicle -4.78823e-014 -4.77083e-015
lhumerus -32.1828 10.2001 82.147
lradius 23.5372
lwrist 15.1149
lhand -17.1176 11.1211
lfingers 7.12502
lthumb 9.12186 40.9038
rfemur -13.6422 7.73752 18.3956
rtibia 35.7024
rfoot -20.0049 -11.5062
rtoes -0.612304
lfemur -1.49866 10.634 -18.267
ltibia 25.7706
lfoot -23.1796 15.6433
ltoes -2.63976
1342
root -1.50502 16.2853 -21.9039 174.93 -35.6966 -174.305
lowerback -0.399376 0.290637 2.19258
upperback 2.80482 0.263899 0.747086
thorax 3.11235 0.152315 -0.453714
lowerneck -6.67311 -1.91893 -0.271741
upperneck 9.69102 -2.96986 2.8174
head 4.45698 -1.38106 0.81916
rclavicle 8.24708e-014 1.19271e-015
rhumerus -40.6881 44.0715 -95.4627
rradius 112.093
rwrist -33.7456
rhand -29.4379 -13.3488
rfingers 7.12502
rthumb -2.77466 -43.3105
lclavicle 8.24708e-014 1.19271e-015
lhumerus -32.1738 10.15 82.1767
lradius 23.5895
lwrist 15.1444
lhand -17.1261 11.1155
lfingers 7.12502
lthumb 9.11371 40.8986
rfemur -13.6349 7.72578 18.3957
rtibia 35.7059
rfoot -19.9966 -11.507
rtoes -0.636895
lfemur -1.48958 10.6404 -18.2636
ltibia 25.7696
lfoot -23.1725 15.633
ltoes -2.6553
1343
root -1.50413 16.2851 -21.903 174.92 -35.7016 -174.306
lowerback -0.38888 0.288415 2.19255
upperback 2.80664 0.261031 0.747948
thorax 3.10824 0.15078 -0.452943
lowerneck -6.67729 -1.92161 -0.275059
upperneck 9.69448 -2.97298 2.81526
head 4.45917 -1.38275 0.818808
rclavicle 1.79155e-014 -7.95139e-015
rhumerus -40.6675 44.0655 -95.4423
rradius 112.097
rwrist -33.7514
rhand -29.4303 -13.3136
rfingers 7.12502
rthumb -2.76724 -43.2753
lclavicle 1.79155e-014 -7.95139e-015
lhumerus -32.1638 10.1071 82.2028
lradius 23.6415
lwrist 15.1668
lhand -17.1299 11.1133
lfingers 7.12502
lthumb 9.11003 40.8965
rfemur -13.6287 7.71434 18.3957
rtibia 35.7089
rfoot -19.9893 -11.5062
rtoes -0.647778
lfemur -1.48231 10.6473 -18.2603
ltibia 25.7693
lfoot -23.1648 15.6234
ltoes -2.67473
